<svg width="95" height="93" viewBox="0 0 95 93" fill="none" xmlns="http://www.w3.org/2000/svg">
<path d="M47.9634 0C47.9634 0 49.2966 11.655 43.9988 14.6589C38.7362 17.6628 13.0543 27.6056 13.0543 34.5746C13.0543 41.5436 11.7211 60.4981 14.8085 63.1114C17.896 65.7248 22.492 70.0504 27.2986 70.8014V38.8702C27.2986 38.8702 25.7549 34.2141 38.0345 30.4293C39.2624 30.0388 41.3324 29.6783 43.0866 31.751C44.8409 33.8236 56.0328 44.3372 56.0328 44.3372L55.1908 3.00388L89.8543 20.6667C89.8543 20.6667 94.6959 23.3101 94.9064 29.3178C95.117 35.3256 94.9064 65.0039 94.9064 65.0039C94.9064 65.0039 94.2398 71.0116 87.2229 74.0155C80.206 77.0194 48.8405 93 48.8405 93C48.8405 93 47.9634 83.5979 50.1737 81.5552C52.384 79.4826 81.9953 67.2868 82.8725 60.3178C83.7496 53.3789 84.6267 31.9612 81.7848 30.2791C78.943 28.5969 68.4176 23.1298 68.4176 23.1298C68.4176 23.1298 69.9263 48.7529 68.2071 57.1337C67.5405 60.4079 64.1023 66.8362 55.7171 65.0339C50.0334 63.8023 40.35 49.8343 40.35 49.8343L40.5605 89.8459C40.5605 89.8459 3.23064 74.9467 1.93252 67.6773C0.00286779 57.0436 -1.19001 27.7859 1.86235 24.782C4.9147 21.7781 47.9634 0 47.9634 0Z" fill="white"/>
</svg>
